<svg width="23" height="23" viewBox="0 0 23 23" fill="none" xmlns="http://www.w3.org/2000/svg">
<path fill-rule="evenodd" clip-rule="evenodd" d="M5.25 0.125C5.48206 0.125 5.70462 0.217187 5.86872 0.381281C6.03281 0.545376 6.125 0.767936 6.125 1V2.75H16.625V1C16.625 0.767936 16.7172 0.545376 16.8813 0.381281C17.0454 0.217187 17.2679 0.125 17.5 0.125C17.7321 0.125 17.9546 0.217187 18.1187 0.381281C18.2828 0.545376 18.375 0.767936 18.375 1V2.75H19.25C20.1783 2.75 21.0685 3.11875 21.7249 3.77513C22.3813 4.4315 22.75 5.32174 22.75 6.25V19.375C22.75 20.3033 22.3813 21.1935 21.7249 21.8499C21.0685 22.5063 20.1783 22.875 19.25 22.875H3.5C2.57174 22.875 1.6815 22.5063 1.02513 21.8499C0.368749 21.1935 0 20.3033 0 19.375V6.25C0 5.32174 0.368749 4.4315 1.02513 3.77513C1.6815 3.11875 2.57174 2.75 3.5 2.75H4.375V1C4.375 0.767936 4.46719 0.545376 4.63128 0.381281C4.79538 0.217187 5.01794 0.125 5.25 0.125ZM21 10.625C21 10.1609 20.8156 9.71575 20.4874 9.38756C20.1592 9.05937 19.7141 8.875 19.25 8.875H3.5C3.03587 8.875 2.59075 9.05937 2.26256 9.38756C1.93437 9.71575 1.75 10.1609 1.75 10.625V19.375C1.75 19.8391 1.93437 20.2842 2.26256 20.6124C2.59075 20.9406 3.03587 21.125 3.5 21.125H19.25C19.7141 21.125 20.1592 20.9406 20.4874 20.6124C20.8156 20.2842 21 19.8391 21 19.375V10.625Z" fill="white"/>
</svg>
