<svg width="30" height="27" viewBox="0 0 30 27" fill="none" xmlns="http://www.w3.org/2000/svg">
<path d="M20.625 0C15.45 0 11.25 3.73333 11.25 8.33333C11.25 8.86667 11.25 9.4 11.3625 9.9L0 20V26.6667H11.25V20H18.75V16.6667L18.8625 16.5667C19.425 16.6667 20.025 16.6667 20.625 16.6667C25.8 16.6667 30 12.9333 30 8.33333C30 3.73333 25.8 0 20.625 0ZM22.5 3.33333C24.5625 3.33333 26.25 4.83333 26.25 6.66667C26.25 8.5 24.5625 10 22.5 10C20.4375 10 18.75 8.5 18.75 6.66667C18.75 4.83333 20.4375 3.33333 22.5 3.33333Z" fill="black" fill-opacity="0.24"/>
</svg>
