<svg width="87" height="66" viewBox="0 0 87 66" fill="none" xmlns="http://www.w3.org/2000/svg">
<path d="M17.5212 59.7606C17.5212 62.9421 14.9421 65.5212 11.7606 65.5212C8.5791 65.5212 6 62.9421 6 59.7606C6 56.5791 8.5791 54 11.7606 54C14.9421 54 17.5212 56.5791 17.5212 59.7606Z" fill="white"/>
<path d="M48.0422 59.7606C48.0422 62.9421 45.4631 65.5212 42.2816 65.5212C39.1001 65.5212 36.521 62.9421 36.521 59.7606C36.521 56.5791 39.1001 54 42.2816 54C45.4631 54 48.0422 56.5791 48.0422 59.7606Z" fill="white"/>
<path d="M78.5636 59.7606C78.5636 62.9421 75.9845 65.5212 72.8031 65.5212C69.6216 65.5212 67.0425 62.9421 67.0425 59.7606C67.0425 56.5791 69.6216 54 72.8031 54C75.9845 54 78.5636 56.5791 78.5636 59.7606Z" fill="white"/>
<path d="M3.465 46V14.59H24.84V20.665H10.305V27.1H22.77V33.13H10.305V39.925H24.84V46H3.465Z" fill="#FF865B"/>
<path d="M30.799 14.59H42.634C44.704 14.59 46.594 14.92 48.304 15.58C50.014 16.24 51.469 17.23 52.669 18.55C53.869 19.84 54.799 21.475 55.459 23.455C56.119 25.405 56.449 27.685 56.449 30.295C56.449 32.905 56.119 35.2 55.459 37.18C54.799 39.13 53.869 40.765 52.669 42.085C51.469 43.375 50.014 44.35 48.304 45.01C46.594 45.67 44.704 46 42.634 46H30.799V14.59ZM42.634 39.925C44.674 39.925 46.279 39.355 47.449 38.215C48.619 37.075 49.204 35.245 49.204 32.725V27.865C49.204 25.345 48.619 23.515 47.449 22.375C46.279 21.235 44.674 20.665 42.634 20.665H37.639V39.925H42.634Z" fill="#FADF60"/>
<path d="M72.3459 46.54C69.5859 46.54 67.2459 46.075 65.3259 45.145C63.4059 44.185 61.7709 42.955 60.4209 41.455L64.9209 36.91C67.0509 39.31 69.6759 40.51 72.7959 40.51C74.4759 40.51 75.7209 40.165 76.5309 39.475C77.3409 38.785 77.7459 37.87 77.7459 36.73C77.7459 35.86 77.5059 35.14 77.0259 34.57C76.5459 33.97 75.5709 33.565 74.1009 33.355L70.9959 32.95C67.6659 32.53 65.2209 31.525 63.6609 29.935C62.1309 28.345 61.3659 26.23 61.3659 23.59C61.3659 22.18 61.6359 20.89 62.1759 19.72C62.7159 18.55 63.4809 17.545 64.4709 16.705C65.4909 15.865 66.7209 15.22 68.1609 14.77C69.6309 14.29 71.2959 14.05 73.1559 14.05C75.5259 14.05 77.6109 14.425 79.4109 15.175C81.2109 15.925 82.7559 17.02 84.0459 18.46L79.5009 23.05C78.7509 22.18 77.8359 21.475 76.7559 20.935C75.7059 20.365 74.3709 20.08 72.7509 20.08C71.2209 20.08 70.0809 20.35 69.3309 20.89C68.5809 21.43 68.2059 22.18 68.2059 23.14C68.2059 24.22 68.4909 25 69.0609 25.48C69.6609 25.96 70.6209 26.305 71.9409 26.515L75.0459 27.01C78.2859 27.52 80.6859 28.525 82.2459 30.025C83.8059 31.495 84.5859 33.595 84.5859 36.325C84.5859 37.825 84.3159 39.205 83.7759 40.465C83.2359 41.725 82.4409 42.805 81.3909 43.705C80.3709 44.605 79.0959 45.31 77.5659 45.82C76.0359 46.3 74.2959 46.54 72.3459 46.54Z" fill="#7CFDC7"/>
</svg>
