<svg width="19" height="21" viewBox="0 0 19 21" fill="none" xmlns="http://www.w3.org/2000/svg">
<path fill-rule="evenodd" clip-rule="evenodd" d="M2.62522 7.50366C2.62522 5.71345 3.33638 3.99656 4.60225 2.73069C5.86812 1.46482 7.58501 0.753662 9.37522 0.753662C11.1654 0.753662 12.8823 1.46482 14.1482 2.73069C15.4141 3.99656 16.1252 5.71345 16.1252 7.50366V8.25366C16.1252 10.3767 16.9252 12.3107 18.2432 13.7737C18.3253 13.8647 18.3839 13.9744 18.4138 14.0932C18.4436 14.2121 18.4439 14.3364 18.4146 14.4554C18.3853 14.5744 18.3273 14.6845 18.2457 14.7758C18.164 14.8672 18.0612 14.9372 17.9462 14.9797C16.4022 15.5497 14.7862 15.9697 13.1152 16.2227C13.1528 16.7368 13.0841 17.2532 12.9131 17.7395C12.7422 18.2259 12.4729 18.6718 12.1219 19.0494C11.771 19.427 11.3459 19.7282 10.8733 19.9341C10.4007 20.1401 9.89073 20.2463 9.37522 20.2463C8.8597 20.2463 8.34972 20.1401 7.87713 19.9341C7.40454 19.7282 6.97948 19.427 6.62851 19.0494C6.27754 18.6718 6.00819 18.2259 5.83729 17.7395C5.66638 17.2532 5.59759 16.7368 5.63522 16.2227C3.98687 15.9729 2.36821 15.5561 0.804217 14.9787C0.689351 14.9363 0.586614 14.8664 0.504979 14.7751C0.423344 14.6839 0.365294 14.574 0.335898 14.4551C0.306503 14.3363 0.306657 14.212 0.336346 14.0932C0.366035 13.9744 0.424357 13.8647 0.506217 13.7737C1.87302 12.2603 2.6283 10.2929 2.62522 8.25366V7.50366ZM7.12722 16.4037C7.11442 16.7069 7.1631 17.0095 7.2703 17.2934C7.37751 17.5773 7.54103 17.8366 7.75104 18.0556C7.96105 18.2747 8.21319 18.449 8.49231 18.568C8.77143 18.6871 9.07176 18.7485 9.37522 18.7485C9.67868 18.7485 9.979 18.6871 10.2581 18.568C10.5372 18.449 10.7894 18.2747 10.9994 18.0556C11.2094 17.8366 11.3729 17.5773 11.4801 17.2934C11.5873 17.0095 11.636 16.7069 11.6232 16.4037C10.1276 16.5384 8.62286 16.5384 7.12722 16.4037Z" fill="white"/>
</svg>
