<svg width="82" height="33" viewBox="0 0 82 33" fill="none" xmlns="http://www.w3.org/2000/svg">
<path d="M0.465 32V0.589999H21.84V6.665H7.305V13.1H19.77V19.13H7.305V25.925H21.84V32H0.465Z" fill="#FF865B"/>
<path d="M27.799 0.589999H39.634C41.704 0.589999 43.594 0.919999 45.304 1.58C47.014 2.24 48.469 3.23 49.669 4.55C50.869 5.84 51.799 7.475 52.459 9.455C53.119 11.405 53.449 13.685 53.449 16.295C53.449 18.905 53.119 21.2 52.459 23.18C51.799 25.13 50.869 26.765 49.669 28.085C48.469 29.375 47.014 30.35 45.304 31.01C43.594 31.67 41.704 32 39.634 32H27.799V0.589999ZM39.634 25.925C41.674 25.925 43.279 25.355 44.449 24.215C45.619 23.075 46.204 21.245 46.204 18.725V13.865C46.204 11.345 45.619 9.515 44.449 8.375C43.279 7.235 41.674 6.665 39.634 6.665H34.639V25.925H39.634Z" fill="#FADF60"/>
<path d="M69.3459 32.54C66.5859 32.54 64.2459 32.075 62.3259 31.145C60.4059 30.185 58.7709 28.955 57.4209 27.455L61.9209 22.91C64.0509 25.31 66.6759 26.51 69.7959 26.51C71.4759 26.51 72.7209 26.165 73.5309 25.475C74.3409 24.785 74.7459 23.87 74.7459 22.73C74.7459 21.86 74.5059 21.14 74.0259 20.57C73.5459 19.97 72.5709 19.565 71.1009 19.355L67.9959 18.95C64.6659 18.53 62.2209 17.525 60.6609 15.935C59.1309 14.345 58.3659 12.23 58.3659 9.59C58.3659 8.18 58.6359 6.89 59.1759 5.72C59.7159 4.55 60.4809 3.545 61.4709 2.705C62.4909 1.865 63.7209 1.22 65.1609 0.77C66.6309 0.289999 68.2959 0.0499983 70.1559 0.0499983C72.5259 0.0499983 74.6109 0.424998 76.4109 1.175C78.2109 1.925 79.7559 3.02 81.0459 4.46L76.5009 9.05C75.7509 8.18 74.8359 7.475 73.7559 6.935C72.7059 6.365 71.3709 6.08 69.7509 6.08C68.2209 6.08 67.0809 6.35 66.3309 6.89C65.5809 7.43 65.2059 8.18 65.2059 9.14C65.2059 10.22 65.4909 11 66.0609 11.48C66.6609 11.96 67.6209 12.305 68.9409 12.515L72.0459 13.01C75.2859 13.52 77.6859 14.525 79.2459 16.025C80.8059 17.495 81.5859 19.595 81.5859 22.325C81.5859 23.825 81.3159 25.205 80.7759 26.465C80.2359 27.725 79.4409 28.805 78.3909 29.705C77.3709 30.605 76.0959 31.31 74.5659 31.82C73.0359 32.3 71.2959 32.54 69.3459 32.54Z" fill="#7CFDC7"/>
</svg>
